<svg xmlns="http://www.w3.org/2000/svg" viewBox="0 0 180 180"><path fill="#1a5a75" d="M158.2 144.6c-2.2 0-6.4-.8-7.8-1.6l-3.2-.8-1.6-.4-.8-.4q-.9 0-1.8-.6l-1.2-.8c-.6-.2-1-.6-1.6-1.2l-3.6-2.6-1.2-1c-.6-.2-1.2-.8-2.2-2l-9.6-7.8-2.4-2-4.8-3.8-1.4-.8h-.8l-.8.8-1.6 2.4-3 3.2-2 1.8-1.2 1.2-2.8 2-2.8 1.8c-.6 0-1.2.4-2.2 1.2q-1.8 1.2-2.4 1.2c-.6 0-1.4.2-2.4.8s-1.8.8-2.4.8l-1.8.4-2 .4H79l-2.4-.8-1.6-1-2.8-1.8c-1-.8-6-3.8-7.8-5.6l-1.8-1.8-.8-1.6v-3c0-1 .6-1.6 1.6-1.6h.8l1.4 1.6c.4 0 .8.2 1.4.8s1.4 1 2.2 1.2c.2.2.4.2 1 .2h1l2.2.4 1.6.4h11c1.2-.6 2.2-.8 3.2-.8.8 0 1.2 0 1.4-.2l.8-.4 2.2-1.4 1.8-1 3-4 .8-1.6.8-1c.2-.4.4-.8.8-1.2l.6-.8c0-.6.4-1.4 1-2.4V107l-.8-.6c-1.8-.6-3.2-1.2-4-2.2l-1.4-1-1.6-.8-2.8-.8-8-2.4c-1-.2-1.8-.6-2.4-.8-1 0-2.4-.2-4.2-.8l-2.4-.4-1.4-.2H68l-1.6.8-1.4 1.4c-1.6 1.8-3.8 4.6-4.8 6.4l-.6.6c-.6.6-1 1.2-1 1.6l-.4 1.8-.4 2.2-.4 4.6c-.2.2-.2 1.2-.2 2.6l-.2 1.4v8.6l.4 3.6.4 4.2.4 2.6.4 2.8.4 4.6.4 2.4v11.6l-.8.8h-.8l-.8-.8c-.6-.6-1-.8-1.4-.8l-1.6-1.6c-.6-.6-1.2-1.4-1.6-2.2l-.8-.8L50 153l-1-2c-.8-1-1.2-1.6-1.2-2l-.8-1.4-.4-1.4-.4-1.6-.4-4.2-.4-3.6v-18l-.8.8L43 122l-.8.8-.8 1c-.2.2-.6.6-.8 1.2l-.8 1-2.2 2.2c-.4 0-1 .4-2 1.2s-1.8 1.2-2 1.2l-1.4.4-.8.4h-4.8l-2.4-2.4-.8-1.6c0-1 0-1.4-.2-1.6l-.4-1.6-.4-3.2-.4-3v-2.4l.4-2.2.4-1.6.4-.4.4-.6 2.6-2.6 4-3.6 3.8-3.4 2-2c.8-.6 2-1.8 3.4-3.4l2.8-2.8c.6-.2 1.6-1.4 1.6-2.4 1-1 2.4-3 2.4-3.8l.8-1.6.8-2.4c0-1 .2-2 .8-3.2l.6-3v-.8h-1.4L43 80.6l-1 .8c-.6.4-1.2.6-1.4.6l-1.4.8C35 85 32.6 86 32 86c-1 1-2.6 1.6-4.6 1.6h-6.2l-.6-.4-1-.4c-.4-.2-.8-.6-1.4-.8-1.8-.6-3-1.4-4-2.4-.6 0-2-1-4-3-.6-.2-1.8-1.4-3.8-3.6l-2-2.2-1.2-1.4-.8-.8c-.27-.27-.45-.5-.58-.71A90.7 90.7 0 0 0 0 89.99c0 49.71 40.29 90 90 90 29.17 0 55.1-13.88 71.54-35.4h-3.35ZM56.4 7l1.4.4 1.6.4c.8 0 4 1.6 4.8 2.4.4 0 .8.2 1.4.8l1.6 1.6 2.4 2.2c.2.6.4 1.2.8 1.4.6 1 .8 1.6.8 1.8l.4 1.6.4.8v18l.8.8 2.2 1.4 4 4 .4 1.4.4 1.8v3l-.8 1.6c0 .6-.4 1-1.2 1.6l-2 1.6-2.4 1.4-2.2.8c-1 0-2.2.6-3.2 1.6l-1.6 3.8-.8 1c0 .8 0 1.2-.2 1.4l-.4 1.6V75l-.4 1.8-.4 2.2-.8 2.4v1.4l2.2-1.4 4.8-4H72l.8.8.6 2.4v2.2l-.6 3.2v1.6h3l1.6-.2c1.6 0 2.6 0 2.8-.2l4.2-.4H93l2.8.4 2.6.4c.6 0 1.4.2 2.4.8s1.8.8 2.4.8h.8l.8-5.6V72.8h-.8l-2.4 1Q99.8 75 99.2 75l-.8.4-1.4.4c-1 0-2 .2-3.2.8h-2.4l-.8-.4-1.4-.4-1.6-.8-7-7v-3.8l.8-1.6 1.4-1.6c.2-.2 3.2-1.8 8.6-4.4 4.8-2.2 7.6-3.6 8.6-4.2.4-.4 1.4-1 2.8-1.6s2.2-1 2.8-1.6l.8-.8.6-1.2c.6-.6.8-1.2.8-1.8l.4-1.4.6-2.4L110 36c.2-.2.2-1 .2-2.4l.4-3.2.4-2.2v-8.6c0-.8-1.6-2.4-2.4-2.4l-.8-.4-1.4-.4H100l-.8-.8-.8-1.4v-4c.6-1.2.8-2.2.8-3.2l.4-1.4.4-.8c0-.2.6-1 1.8-2l1.94-1.76C99.26.35 94.67 0 90.01 0 77.65 0 65.87 2.49 55.15 7h1.26ZM120.4 5.6 122 7c0 .6.4 1.4 1.2 2.8l1.8 3.6c0 .6.2 1.2.8 1.8.6 1 .8 1.6.8 2 0 1 .2 2 .8 3.2v7.8l-.4 2.2-.4 2.4-.8 5.6v.8h3.2l2-.4 1.8-.4h4l3.2.6c1 .6 2 .8 3 .8l1.6 2.4.8 1.6.4 2.4.4 2.2v3.2l-.8 1.6c0 1-.6 1.6-1.6 1.6l-1.8.4-2.8.4h-1.6l-2.8.6-3.8 1-6.8 2-.8.6-.2.4c0 .2 0 .4-.2.6s-.2.6-.2 1.4l-.4 1.8-.4 2.2-.4 2.6-.4 2v.6q-.2.2-.2.4c0 .2-.2.2-.2.8-.2.2-.2 1.2-.2 2.6l-.2 1.4v3.2l-.4 5.8-.4 12.2v2.2l.8 1.6 3 3.2c.2.6 1.4 1.6 2.4 1.6.8 0 5.8 2.2 8.8 3.8.2.2.6.6 1.4.8l7.2 3.2c.8.8 4 2 5.6 2.2.2 0 1.4.4 3.2 1.2q2.4 1.2 3 1.2l1.6.8c.4 0 .8.2 1.4.8l1 .8c.2.2 1.4 1.4 3.6 3.2l4.2 3.8 3.15 3.16C176.37 118.98 180 104.92 180 90c0-39.64-25.62-73.29-61.21-85.29.64.5 1.17.75 1.6.9ZM6.4 64.8h5.4l1.6-.4c.2-.2.6-.2 1.6-.2l1.2-.4 2-1 2.2-1L22 61c1-.2 3-1.2 6.4-3.2l3.8-1.8 2.2-1.2c.2-.2 1.8-1.2 8-4.4 3.4-1.8 6-3.2 7.6-4.2l1.6-1.6.4-1.6.4-2.4.8-3.4.8-4.2.6-3.6.2-2v-4L54 22l-.8-2.4-.8-.8h-4.6v-8.31C26.69 21.72 10.58 41.12 3.68 64.46z"/></svg>