<svg xmlns="http://www.w3.org/2000/svg" viewBox="0 0 120 105"><path d="M64 21.54c1.09.03 1.75.56 2.72.96 1.06.43 2.09.36 3.22.34.83-.01 3.4-.41 4.07.03 1.87 1.24-6.3 8.43-7.39 9.47-1.02.98-2.49 2.73-1.82 4.36.66 1.58 3.86.8 5.2.66 2.2-.24 4.4-.49 6.61-.61 1.87-.1 3.39-.2 2.15 1.98-.93 1.62-2.4 2.82-3.31 4.5A16.88 16.88 0 0 0 73.33 49c-.3 2.13-.12 4.37.36 6.47.41 1.75 1.62 3.64 1.21 5.48-.44 2.01-2.53 3.54-4.05 4.74-1.63 1.29-3.32 2.48-4.92 3.81-2.98 2.49-6.16 4.38-7.8 8.05-1.64 3.66-2.31 8.07-2.97 12.01a91.86 91.86 0 0 0-.9 6.98c-.14 1.58-.7 3.78-.28 5.32 4.8-5.11 5.01-13.29 4.72-19.89-.07-1.65-.32-2.9.68-4.31.8-1.12 1.88-2.09 3-2.88 1.22-.85 2.63-1.38 3.81-2.28 1.2-.92 2.26-2.02 3.37-3.03 2.35-2.13 5.36-3.47 7.64-5.63 2.2-2.08.04-5.58-.83-7.88-1.11-2.93-1.53-6.32-.37-9.29 1.11-2.84 3.24-4.42 4.91-6.82 1.66-2.4.94-4.78-2-5.26-3.21-.52-6.62.08-9.83.34-.81-1.03.96-2.1 1.61-2.73.89-.85 1.62-1.58 2.23-2.66.7-1.24 1.59-2.47 2.21-3.76.67-1.41-.12-1.55-.23-2.76 1.49-.34 3.05-.07 4.56-.05 1.54.02 3.09 0 4.63 0-.4.71-1.55 1.06-2.12 1.67a6.14 6.14 0 0 0-1.38 2.62c-.41 1.54-.64 3.7.36 5.05 1.29 1.74 3.7 2.53 5 4.27 1.31 1.75-.18 3.52-1.25 4.91l.19.22c1.52-.68 3.95-1.23 4.62-2.96.64-1.64-.44-3.2-1.6-4.28-1.77-1.64-7.21-4.33-4.41-7.16 1.04-1.05 2.73-1.33 4.11-1.64.67-.15 1.42-.2 1.99-.61.68-.49.54-.92.9-1.49.65-1.02 2.83-.45 4.06-.39 1.89.1 3.77.22 5.66.33l11.76.69c1.14.06 3.42.26 2.6-1.63-.48-1.11-2.3-1.59-3.39-1.73-3.45-.46-7.31-.14-10.8-.1-3.6.04-7.19.11-10.79.07-7.37-.08-14.71.24-22.07-.26l-.04-.18c5.94-2.69 12.31-5.7 17.99-8.96 2.79-1.6 5.3-3.58 7.95-5.4 2.32-1.59 4.64-2.9 5.1-5.92L98.3.02C95.85 2.5 92.58 4 89.58 5.78c-3.18 1.9-6.4 3.71-9.65 5.48-3.16 1.72-6.74 3.93-9.96 5.52-1.6.79-3.28 1.45-4.87 2.25-1.33.67-2.51 1.62-4.07 1.67 1.09.81 1.7.82 2.96.86ZM8.44 86.91c2.37-3.43 4.71-6.75 6.48-10.55 1.52-3.26 3.22-6.6 3.99-10.12.38-1.72.96-3.64.6-5.41-.38-1.83-1.63-3.48-2.57-5.06-.62-1.06-1.72-2.52-.35-3.49 1.06-.75 2.6-.4 3.73-1.28 1.62-1.27.88-2.73.26-4.36-.63-1.62-1.31-3.22-1.97-4.83-1.05-2.54-3.43-6.29-1.6-8.97 1.6-2.36 5.2-3.15 6.11-6.09.94-3.03-1.82-5.28-2.41-7.98-.8-3.63 1.71-5.67 4.19-7.77l-.27-.27c-3.25.43-5.71 3.86-5.82 7-.05 1.63.17 3.32.73 4.86.7 1.91 1.59 2.56.07 4.3-1.84 2.12-4.23 3.74-5.04 6.56-.87 3.03.16 6.22 1.23 9.05a89.42 89.42 0 0 0 2.03 4.83c.64 1.44 1.23 1.91-.02 2.9-1.2.95-2.57 1.89-2.53 3.58.03 1.36.82 2.75 1.37 3.96 1.33 2.95-1.42 6.26-2.76 8.91a217.98 217.98 0 0 0-4.56 9.35C6.49 82.39 4.39 88.6-.01 94.1c3.51-1.5 6.26-4.06 8.44-7.21Z"/><path d="M103.87 38.1c-2.95 1.16-5.34 1.81-6.6 4.93-1.24 3.08-2.36 6.21-2.8 9.51-.15 1.12-.53 3.04.05 4.11.59 1.08 1.25.54 2.24.88-.5 3.13-1.28 5.85.35 8.75a134.7 134.7 0 0 0 4.53 7.32c3.12 4.8 6.28 9.57 9.39 14.37 1.35 2.09 2.82 4.12 4.13 6.24 1.29 2.08 2.05 4.54 3.51 6.51 1.97 2.64 1.26-3.07.94-4.21a21.89 21.89 0 0 0-2.8-6.07c-1.33-2.04-2.3-4.29-3.72-6.26a353.84 353.84 0 0 1-4.11-5.8 112.66 112.66 0 0 0-9.3-12.13c-.71-.78-1.93-1.75-2.31-2.76-.37-.97-.14-2.3.09-3.27.24-1.01.9-2.2.84-3.27-.07-1.27-.84-.98-1.57-1.65-1.03-.95.41-4.8.73-6.14.43-1.77.73-4.42 2.1-5.72 1.63-1.54 4.91-2.28 6.97-3.04 2.26-.84 4.87-1.57 6.91-2.89 1.96-1.27 1.84-3.44.41-5.07-1.5-1.71-2.59-3.59-3.97-5.39l-.16.12 3.46 6.78a85.53 85.53 0 0 1-9.34 4.14ZM83.45 95.53c-.91 1.83-3.9 5.89-1.25 7.64 1.2.79 3.39.82 4.78.83 1.93 0 3.86-.09 5.79-.18 3.89-.19 7.83.15 11.61-.95a13.87 13.87 0 0 0 4.69-2.26c.98-.74 2.65-1.72 2.65-3.11a42.8 42.8 0 0 1-7.91 1.66 243.4 243.4 0 0 1-13.02.7c-1.4.04-3.14.34-4.51.1-1.29-.23-.95-.76-.48-1.82.57-1.27 1.2-2.51 1.82-3.76.49-1 1.31-1.99.2-2.8a5.89 5.89 0 0 0-1.87-.71c-1.1-.22-.47-.11-1.33.19-2.4.85-4.83 2.41-7.18 3.48-5.24 2.39-10.4 3.63-16.04 4.64 1.27.77 1.25 1.46 2.79 1.7 2.1.33 4.2.07 6.22-.56 4.4-1.38 8.51-3.57 12.89-5.01l.14.23ZM7.45 98.16c1 .42 1.85.6 3.01.68 2.58.17 5.17-.27 7.73-.61 5.19-.68 9.89-2.25 14.82-3.95-.44 2.33-3.08 3.73-1.84 6.41 1.04 2.25 5.08 1.75 7.17 1.56 3.89-.36 11.16-1.03 11.88-5.99-4.74 2.47-9.77 1.53-14.8 2 .43-2.03 2.38-3.77 3.63-5.41 1.02-1.34 2.66-2.77.55-3.8-1.57-.76-2.27-.41-3.65.27-1.93.95-4.14 1.55-6.16 2.3-8.3 3.09-16.85 5.31-25.72 5.82 1.11.39 2.29.26 3.39.72ZM52.96 82.59c-.68-3.53-1.62-7.16-3.33-10.34-1.72-3.2-4.13-5.92-6.46-8.67l-3.81-4.43c-.85-.98-2.86-2.56-3.03-3.9-.17-1.32 1.47-2.73 2.11-3.79.84-1.39 1.79-3.13 1.71-4.81-.08-1.79-1.24-3.42-1.56-5.17-.28-1.56.32-1.89 1.73-2.44 3.52-1.37 7.22-2.24 10.78-3.5 1.37-.49 3.09-1.13 3.94-2.41.88-1.33.21-3.49.07-4.99h-.26c-.2 1.23-.11 2.87-1.13 3.75-1.25 1.08-3.56 1.48-5.1 2.05-3.17 1.17-7.23 2.07-9.84 4.32a4.44 4.44 0 0 0-1.41 3.85c.19 1.73 1.59 3.23 1.32 5.01-.47 3.15-4.36 5.54-3.54 8.99.33 1.4 1.53 2.27 2.38 3.36 1.11 1.41 2.08 2.92 3.2 4.32 2.18 2.73 4.72 5.18 6.3 8.35 1.57 3.14 1.97 6.8 2.78 10.18a274.1 274.1 0 0 0 2.82 10.94c1.82-2.91.95-7.46.34-10.66ZM33.62 33.8c3.26-.27 6.36-1.16 9.46-2.16 2.91-.93 5.72-2.11 8.55-3.25a19.78 19.78 0 0 0 3.83-2.03c.81-.56 2.48-1.53 2.7-2.56.26-1.25-.54-.56-1.3-.27-1.4.54-2.81.95-4.19 1.57-3.07 1.37-6.15 2.75-9.33 3.85a84.37 84.37 0 0 1-9.26 2.51c-3.05.69-6.11 1.59-9.25 1.73 2.05 1.73 6.34.8 8.77.6Z"/><path d="M58.16 21.14c-1.76-1.13-3.51-1.1-5.56-1.24-1.92-.13-3.83-.29-5.75-.41-2.01-.12-4.02-.21-6.04-.21-2.07 0-4.21.22-6.25-.28-.68 2.23 4.22 1.9 5.45 2.04 2.77.31 5.54.61 8.32.88 2.43.23 4.87.39 7.29.69.67.08 1.57.38 2.16-.07.43-.33.23-1.01.71-1.19.89 1.58 1.37 3.21 2.04 4.88.34.84 1.66 2.41 1.79.41.12-1.93-2.77-6.71-4.75-7.02l.74 1.4-.15.13ZM98.97 33.35c-1.53.12-3.53.41-5.03-.07-1.58-.51-1.75-1.85-2.22-3.29-.03.53.24 1.08.17 1.6-.05.4-.41.74-.41 1.09-.02.81.72 2.09 1.24 2.68 1.33 1.51 3.29 1.69 5.17 1.53 4.02-.33 9.67-1.25 11.33-5.7-3.18 1.47-6.8 1.9-10.25 2.16ZM25.66 28.08c2.04-.19 7.69-1.79 6.92-4.74-.43-1.64-2.37-3.2-3.42-4.46-1.18-1.42-1.5-2.44-1.83-4.24a11.3 11.3 0 0 0-.12 4.14c.28 1.33 1.07 2.13 1.68 3.29.63 1.2.01 1.83-.67 2.9a8.17 8.17 0 0 1-2.65 2.89l.08.22Z"/></svg>